# xmcd
#
# Track frame offsets: 
#        225
#        14183
#        29130
#        48907
#        63923
#        83932
#        99466
#        117710
#        134844
#        152588
#        166630
#        180800
#        195133
#        211814
#        225330
#        239419
#
# Disc length: 3374 seconds
#
# Revision: 2
# Processed by: cddbd v1.5.2PL0 Copyright (c) Steve Scherf et al.
# Submitted via: ExactAudioCopy v1.0b1
#
DISCID=cf0d2b10
DTITLE=Various Artist - Romantic Panpipes
DYEAR=2003
DGENRE=Instrumental
TTITLE0=Daniela Santos - Pan Fantasy
TTITLE1=Paolo Lorenzo - The Last Rose
TTITLE2=Pan Dreams - Charming Night
TTITLE3=Paolo Lorenzo - Love Story
TTITLE4=Pan Dreams - Summerdreams
TTITLE5=Paolo Lorenzo - Fascinating Music
TTITLE6=Paolo Lorenzo - Lonelyness
TTITLE7=Daniela Santos - Summerwind
TTITLE8=Pan Dreams - Pan Romance
TTITLE9=Paolo Lorenzo - Bells of Love
TTITLE10=Pan Dreams - Barfly
TTITLE11=Daniela Santos - Hawaiian Dreams
TTITLE12=Pan Dreams - Indian Summer
TTITLE13=Paolo Lorenzo - Your Heart Does Not Lie
TTITLE14=Daniela Santos - You are My First Thought
TTITLE15=Paolo Lorenzo - Good Night
EXTD=
EXTT0=
EXTT1=
EXTT2=
EXTT3=
EXTT4=
EXTT5=
EXTT6=
EXTT7=
EXTT8=
EXTT9=
EXTT10=
EXTT11=
EXTT12=
EXTT13=
EXTT14=
EXTT15=
PLAYORDER=
